<svg width="744" height="250" viewBox="0 0 744 250" fill="none" xmlns="http://www.w3.org/2000/svg">
<g clip-path="url(#clip0_43_10)">
<path fill-rule="evenodd" clip-rule="evenodd" d="M136.8 53H117.2C104.494 52.9998 94.2536 52.9996 86.1992 54.0825C77.8369 55.2068 70.7961 57.612 65.204 63.204C59.612 68.7961 57.2068 75.8369 56.0825 84.1997C54.9996 92.2535 54.9998 102.494 55 115.2V134.8C54.9998 147.506 54.9996 157.747 56.0825 165.801C57.2068 174.163 59.612 181.204 65.204 186.796C70.7961 192.388 77.8369 194.794 86.1992 195.918C94.2536 197 104.494 197 117.2 197H136.8C149.506 197 159.747 197 167.801 195.918C176.163 194.794 183.204 192.388 188.796 186.796C194.388 181.204 196.794 174.163 197.918 165.801C199 157.747 199 147.506 199 134.8V115.2C199 102.494 199 92.2535 197.918 84.1997C196.794 75.8369 194.388 68.7961 188.796 63.204C183.204 57.612 176.163 55.2068 167.801 54.0825C159.747 52.9996 149.506 52.9998 136.8 53ZM106.097 106.419C106.097 102.571 102.977 99.4516 99.129 99.4516C95.2809 99.4516 92.1613 102.571 92.1613 106.419V115.71C92.1613 119.558 95.2809 122.677 99.129 122.677C102.977 122.677 106.097 119.558 106.097 115.71V106.419ZM154.871 99.4516C158.719 99.4516 161.839 102.571 161.839 106.419V115.71C161.839 119.558 158.719 122.677 154.871 122.677C151.023 122.677 147.903 119.558 147.903 115.71V106.419C147.903 102.571 151.023 99.4516 154.871 99.4516Z" fill="#5942E8"/>
<path d="M49 84.3888C49 79.7713 49 77.4626 47.5004 76.5965C46.0008 75.7304 44.001 76.8842 40.0015 79.1917L25.7397 87.4202C18.506 91.5937 14.8892 93.6804 15.2469 95.7444C15.2776 95.922 15.3243 96.0964 15.3864 96.2656C16.1081 98.2321 20.2837 98.2321 28.635 98.2321V98.2321C31.2633 98.2321 32.5774 98.2321 33.4323 98.9993C33.5128 99.0715 33.5892 99.148 33.6614 99.2284C34.4286 100.083 34.4286 101.398 34.4286 104.026L34.4286 166.67C34.4286 171.265 34.4286 173.562 35.9219 174.429C37.4151 175.297 39.4105 174.158 43.4014 171.882L45.9728 170.415C47.4498 169.573 48.1883 169.152 48.5941 168.453C49 167.754 49 166.904 49 165.203L49 84.3888Z" fill="#5942E8"/>
<path d="M206 166.418C206 171.11 206 173.457 207.52 174.319C209.041 175.181 211.054 173.976 215.081 171.566L229.37 163.016C236.885 158.52 240.643 156.271 240.035 154.071C240.035 154.07 240.035 154.07 240.035 154.069C239.426 151.869 235.047 151.869 226.29 151.869V151.869C223.462 151.869 222.048 151.869 221.17 150.991C221.169 150.99 221.169 150.99 221.169 150.99C220.29 150.111 220.29 148.697 220.29 145.87L220.29 83.7746C220.29 79.3973 220.29 77.2087 218.86 76.3306C217.429 75.4524 215.478 76.4431 211.575 78.4245L209.284 79.5872C207.686 80.3986 206.887 80.8043 206.443 81.5264C206 82.2485 206 83.1448 206 84.9373L206 166.418Z" fill="#5942E8"/>
</g>
<path d="M316.204 194.6V58.184H341.627V111.822C342.493 109.719 343.606 107.739 344.967 105.883C346.328 103.903 347.936 102.233 349.791 100.872C351.647 99.3872 353.688 98.3354 355.915 97.7168C358.266 96.9744 360.616 96.6032 362.967 96.6032C365.812 96.6032 368.595 97.16 371.317 98.2735C374.162 99.2634 376.575 100.81 378.554 102.914C380.534 105.017 382.142 107.368 383.379 109.966C384.616 112.565 385.606 115.287 386.348 118.133C387.09 120.855 387.585 123.701 387.832 126.67C388.08 129.516 388.204 132.362 388.204 135.208V194.6H362.781V135.208C362.781 133.352 362.657 131.496 362.41 129.64C362.163 127.66 361.668 125.804 360.925 124.072C360.183 122.34 359.008 120.855 357.4 119.618C355.791 118.38 354.06 117.762 352.204 117.762C350.348 117.762 348.616 118.38 347.008 119.618C345.4 120.855 344.225 122.34 343.482 124.072C342.74 125.804 342.245 127.66 341.998 129.64C341.75 131.496 341.627 133.352 341.627 135.208V194.6H316.204Z" fill="#5942E8"/>
<path d="M444.987 196.085C442.018 196.085 438.987 195.714 435.894 194.971C432.925 194.229 430.203 192.991 427.729 191.259C425.255 189.403 423.152 187.238 421.42 184.763C419.688 182.165 418.265 179.443 417.152 176.597C416.162 173.627 415.482 170.658 415.111 167.688C414.863 164.595 414.739 161.501 414.739 158.408V119.246H402.307V98.0879H414.739V58.184H439.976V98.0879H467.255V119.246H439.976V158.408C439.976 159.398 439.976 160.45 439.976 161.563C440.1 162.553 440.162 163.543 440.162 164.533C440.286 165.523 440.409 166.574 440.533 167.688C440.781 168.678 441.028 169.668 441.275 170.658C441.647 171.647 442.079 172.637 442.574 173.627C443.193 174.493 443.997 174.926 444.987 174.926C445.976 174.926 446.719 174.555 447.213 173.813C447.832 173.07 448.265 172.266 448.512 171.4C448.884 170.534 449.131 169.668 449.255 168.802C449.502 167.935 449.626 167.069 449.626 166.203C449.75 165.337 449.811 164.471 449.811 163.605C449.935 162.615 449.997 161.687 449.997 160.821V160.078H475.419V162.12C475.419 164.966 475.172 167.812 474.677 170.658C474.182 173.503 473.378 176.226 472.265 178.824C471.151 181.422 469.667 183.897 467.811 186.248C466.079 188.475 463.976 190.393 461.502 192.002C459.028 193.486 456.368 194.538 453.523 195.157C450.801 195.775 447.956 196.085 444.987 196.085Z" fill="#5942E8"/>
<path d="M528.491 196.085C525.522 196.085 522.491 195.714 519.399 194.971C516.429 194.229 513.708 192.991 511.234 191.259C508.759 189.403 506.656 187.238 504.924 184.763C503.192 182.165 501.77 179.443 500.656 176.597C499.667 173.627 498.986 170.658 498.615 167.688C498.368 164.595 498.244 161.501 498.244 158.408V119.246H485.811V98.0879H498.244V58.184H523.481V98.0879H550.759V119.246H523.481V158.408C523.481 159.398 523.481 160.45 523.481 161.563C523.605 162.553 523.667 163.543 523.667 164.533C523.79 165.523 523.914 166.574 524.038 167.688C524.285 168.678 524.533 169.668 524.78 170.658C525.151 171.647 525.584 172.637 526.079 173.627C526.697 174.493 527.502 174.926 528.491 174.926C529.481 174.926 530.223 174.555 530.718 173.813C531.337 173.07 531.77 172.266 532.017 171.4C532.388 170.534 532.636 169.668 532.759 168.802C533.007 167.935 533.13 167.069 533.13 166.203C533.254 165.337 533.316 164.471 533.316 163.605C533.44 162.615 533.502 161.687 533.502 160.821V160.078H558.924V162.12C558.924 164.966 558.677 167.812 558.182 170.658C557.687 173.503 556.883 176.226 555.769 178.824C554.656 181.422 553.171 183.897 551.316 186.248C549.584 188.475 547.481 190.393 545.007 192.002C542.532 193.486 539.873 194.538 537.027 195.157C534.306 195.775 531.46 196.085 528.491 196.085Z" fill="#5942E8"/>
<path d="M566.718 234.504V98.0879H592.14V111.822C593.006 109.719 594.12 107.677 595.48 105.698C596.841 103.718 598.45 102.047 600.305 100.686C602.285 99.2015 604.388 98.1498 606.614 97.5312C608.965 96.9125 611.315 96.6032 613.666 96.6032C616.635 96.6032 619.48 97.0981 622.202 98.0879C625.047 99.0778 627.521 100.624 629.625 102.728C631.728 104.708 633.46 106.997 634.82 109.595C636.305 112.194 637.418 114.916 638.161 117.762C639.027 120.607 639.583 123.515 639.831 126.485C640.078 129.331 640.202 132.238 640.202 135.208V157.48C640.202 160.45 640.078 163.419 639.831 166.389C639.583 169.235 639.027 172.08 638.161 174.926C637.418 177.772 636.305 180.494 634.82 183.093C633.46 185.691 631.728 188.042 629.625 190.146C627.521 192.125 625.047 193.61 622.202 194.6C619.48 195.59 616.635 196.085 613.666 196.085C611.315 196.085 608.965 195.775 606.614 195.157C604.388 194.538 602.285 193.548 600.305 192.187C598.45 190.702 596.841 188.97 595.48 186.99C594.12 185.011 593.006 182.969 592.14 180.866V234.504H566.718ZM602.903 174.926C604.882 174.926 606.738 174.37 608.47 173.256C610.202 172.142 611.501 170.719 612.367 168.987C613.357 167.255 613.975 165.399 614.223 163.419C614.594 161.439 614.779 159.46 614.779 157.48V135.208C614.779 133.228 614.594 131.248 614.223 129.269C613.975 127.289 613.357 125.433 612.367 123.701C611.501 121.968 610.202 120.546 608.47 119.432C606.738 118.318 604.882 117.762 602.903 117.762C601.666 117.762 600.429 118.009 599.192 118.504C597.955 118.999 596.903 119.741 596.037 120.731C595.171 121.721 594.491 122.835 593.996 124.072C593.501 125.186 593.068 126.361 592.697 127.598C592.45 128.836 592.264 130.135 592.14 131.496C592.14 132.733 592.14 133.971 592.14 135.208V157.48C592.14 158.717 592.14 160.016 592.14 161.378C592.264 162.615 592.45 163.852 592.697 165.09C593.068 166.327 593.501 167.564 593.996 168.802C594.491 169.915 595.171 170.967 596.037 171.957C596.903 172.947 597.955 173.689 599.192 174.184C600.429 174.679 601.666 174.926 602.903 174.926Z" fill="#5942E8"/>
<path d="M653.748 194.6V173.442H674.903V119.246H656.346V98.0879H700.14V173.442H718.696V194.6H653.748ZM687.521 86.9519C685.294 86.9519 683.067 86.6426 680.841 86.0239C678.614 85.2815 676.696 84.1679 675.088 82.6831C673.604 81.0746 672.49 79.1567 671.748 76.9296C671.129 74.7024 670.82 72.4752 670.82 70.248C670.82 68.0208 671.129 65.7935 671.748 63.5663C672.49 61.3391 673.604 59.4831 675.088 57.9983C676.696 56.3898 678.614 55.2762 680.841 54.6576C683.067 53.9151 685.294 53.5439 687.521 53.5439C689.748 53.5439 691.975 53.9151 694.201 54.6576C696.428 55.2762 698.284 56.3898 699.768 57.9983C701.377 59.4831 702.49 61.3391 703.109 63.5663C703.851 65.7935 704.222 68.0208 704.222 70.248C704.222 72.4752 703.851 74.7024 703.109 76.9296C702.49 79.1567 701.377 81.0746 699.768 82.6831C698.284 84.1679 696.428 85.2815 694.201 86.0239C691.975 86.6426 689.748 86.9519 687.521 86.9519Z" fill="#5942E8"/>
<defs>
<clipPath id="clip0_43_10">
<rect width="231.957" height="232" fill="white" transform="translate(12 9)"/>
</clipPath>
</defs>
</svg>
